# xmcd
#
# Track frame offsets: 
#        300
#        25682
#        49700
#        74672
#        102587
#        124420
#        148185
#        172400
#        194012
#        216857
#
# Disc length: 3177 seconds
#
# Revision: 0
# Processed by: cddbd v1.4PL0 Copyright (c) Steve Scherf et al.
# Submitted via: ExactAudioCopy v0.90b3
#
DISCID=ab0c650a
DTITLE=Paul Smith - Back To Who I Am
DYEAR=1900
DGENRE=Country
TTITLE0=Back To Who I Am
TTITLE1=Beat Of A Different Heart
TTITLE2=Bigger Then Life
TTITLE3=Silence Isn't Golden Anymore
TTITLE4=Homesick For Eden
TTITLE5=The Lion Roars
TTITLE6=It's Alright
TTITLE7=Comforter
TTITLE8=Hunger And Thrist
TTITLE9=So Satisfied
EXTD=
EXTT0=
EXTT1=
EXTT2=
EXTT3=
EXTT4=
EXTT5=
EXTT6=
EXTT7=
EXTT8=
EXTT9=
PLAYORDER=
